# xmcd
#
# Track frame offsets:
#	150
#	881
#	13203
#	33718
#	46092
#	65306
#	85427
#	99242
#	114368
#	129846
#	145193
#	164136
#	178248
#	192310
#	205036
#	218494
#	236656
#	249500
#	269220
#	285248
#	306315
#	322991
#	336648
#	352909
#	353531
#	354156
#	354788
#
# Disc length: 4737 seconds
#
# Revision: 1
# Processed by: cddbd v1.5.2PL0 Copyright (c) Steve Scherf et al.
# Submitted via: audiograbber 1.83.01
#
DISCID=87127f1b
DTITLE=Country Hotdisc - Country Hotdisc 107
DYEAR=2007
DGENRE=Country
TTITLE0=Intro  - Intro 
TTITLE1=Hearts And Flowers  - Dave Sheriff
TTITLE2=Power Of One - Bomshell
TTITLE3=You Can Bet Your Boots - Michelle Rae
TTITLE4=Love And Happiness  - Paula Askill and Tom Laverty
TTITLE5=Working Man  - The Murphys
TTITLE6=Home Is Where My Heart Is  - Change Of Key
TTITLE7=Save Your Love  - Daniel O´donnell and Marty Duff
TTITLE8=Don´t Leave Me, Just Squeeze Me  - Jackie Storrar
TTITLE9=Four Seasons Of Life  - Narvel Felts
TTITLE10=The Man From Outer Space  - Stu Stevens
TTITLE11=Long Tail Good Looking Woman - Buddy Knox Jr
TTITLE12=I Burid Our Love  - Gene Watson
TTITLE13=Times Between Bottles Of Wine  - Ian Cal-ford
TTITLE14=Midnight Teardrops  - T J Stuart
TTITLE15=Forever Ago  - Van Preston
TTITLE16=Miss Diffcult - Cowboy Crush
TTITLE17=Highway  - Richard Frankz
TTITLE18=Neon Bible  - Red Jenkins and Johnny Bush
TTITLE19=When You Love Someone Like This  - Leann Rimes and Reba Mcentire
TTITLE20=The Dream  - Ray William Roldan
TTITLE21=Life  - Celia Bryce
TTITLE22=Get It Together  - Bryan White
TTITLE23=Radio Spot  - Jackie Storrar
TTITLE24=Radio Spot  - Bryan White
TTITLE25=Radio Spot  - Bryan White
TTITLE26=Radio Spot  - Bryan White
EXTD=
EXTT0=
EXTT1=
EXTT2=
EXTT3=
EXTT4=
EXTT5=
EXTT6=
EXTT7=
EXTT8=
EXTT9=
EXTT10=
EXTT11=
EXTT12=
EXTT13=
EXTT14=
EXTT15=
EXTT16=
EXTT17=
EXTT18=
EXTT19=
EXTT20=
EXTT21=
EXTT22=
EXTT23=
EXTT24=
EXTT25=
EXTT26=
PLAYORDER=
